<?xml version="1.0" encoding="utf-8"?>
<!-- Designed by Vexels.com - 2016 All Rights Reserved - https://vexels.com/terms-and-conditions/  -->

<svg version="1.1" id="Layer_1" xmlns="http://www.w3.org/2000/svg" xmlns:xlink="http://www.w3.org/1999/xlink" x="0px" y="0px"
	 width="1200px" height="1200px" viewBox="0 0 1200 1200" enable-background="new 0 0 1200 1200" xml:space="preserve">
<g>
	<g>
		<path fill-rule="evenodd" clip-rule="evenodd" fill="#B4B4B4" d="M865.449,464.154c16.303-37.153,41.175-59.559,68.806-70.006
			c20.636-7.83,42.699-8.902,63.785-4.472c20.915,4.398,40.908,14.244,57.585,28.326c25.409,21.473,43.236,52.802,45.134,89.816
			l-16.571,0.837c-1.652-32.049-17.15-59.248-39.245-77.932c-14.609-12.345-32.091-20.958-50.346-24.787
			c-18.073-3.808-36.917-2.918-54.433,3.721c-23.661,8.967-45.133,28.498-59.473,61.19L865.449,464.154z"/>
		<path fill-rule="evenodd" clip-rule="evenodd" fill="#E05D66" d="M1049.255,479.289l74.768-5.138
			c6.403-0.429,11.991,4.44,12.42,10.833l13.526,197.695c0.472,6.393-4.42,11.97-10.823,12.421l-74.757,5.116
			c-6.382,0.45-11.98-4.44-12.41-10.823l-13.547-197.684C1037.993,485.305,1042.862,479.717,1049.255,479.289z"/>
		<g>
			<path fill-rule="evenodd" clip-rule="evenodd" fill="#E8E58F" d="M139.678,323.433h128.203c7.337,0,13.321,5.986,13.321,13.321
				v5.835c0,7.315-5.985,13.31-13.321,13.31H139.678c-7.337,0-13.311-5.996-13.311-13.31v-5.835
				C126.366,329.419,132.341,323.433,139.678,323.433z"/>
			<path fill-rule="evenodd" clip-rule="evenodd" fill="#E8E58F" d="M824.016,325.085h128.226c7.315,0,13.31,5.996,13.31,13.332
				v5.834c0,7.316-5.995,13.311-13.31,13.311H824.016c-7.315,0-13.31-5.996-13.31-13.311v-5.834
				C810.705,331.081,816.701,325.085,824.016,325.085z"/>
			<path fill-rule="evenodd" clip-rule="evenodd" fill="#E8E58F" d="M454.379,315.111h163.169c7.326,0,13.321,5.996,13.321,13.321
				v5.813c0,7.337-5.996,13.332-13.321,13.332H454.379c-7.337,0-13.321-5.996-13.321-13.332v-5.813
				C441.057,321.106,447.042,315.111,454.379,315.111z"/>
			<path fill-rule="evenodd" clip-rule="evenodd" fill="#AA663E" d="M373.41,191.884h312.31c21.365,0,38.826,17.504,38.826,38.848
				v155.426c0,21.354-17.461,38.837-38.826,38.837H373.41c-21.376,0-38.87-17.483-38.87-38.837V230.732
				C334.54,209.388,352.034,191.884,373.41,191.884L373.41,191.884z M402.133,232.996c-10.876,0-19.756,8.891-19.756,19.756V394.04
				c0,10.855,8.881,19.757,19.756,19.757h254.863c10.865,0,19.756-8.903,19.756-19.757V252.752c0-10.866-8.891-19.756-19.756-19.756
				H402.133z"/>
			<path fill-rule="evenodd" clip-rule="evenodd" fill="#772D2F" d="M322.056,289.584h77.718c12.045,0,21.901,9.857,21.901,21.912
				v55.806c0,12.045-9.856,21.923-21.901,21.923h-77.718c-12.045,0-21.901-9.878-21.901-21.923v-55.806
				C300.154,299.441,310.011,289.584,322.056,289.584z"/>
			<path fill-rule="evenodd" clip-rule="evenodd" fill="#772D2F" d="M668.398,291.247h77.696c12.067,0,21.923,9.878,21.923,21.912
				v55.805c0,12.067-9.856,21.923-21.923,21.923h-77.696c-12.066,0-21.923-9.856-21.923-21.923v-55.805
				C646.474,301.125,656.332,291.247,668.398,291.247z"/>
			<path fill-rule="evenodd" clip-rule="evenodd" fill="#AA663E" d="M98.663,342.59h872.498c25.655,0,46.635,20.99,46.635,46.635
				v566.099c0,25.645-20.98,46.635-46.635,46.635H98.663c-25.634,0-46.624-20.99-46.624-46.635V389.225
				C52.038,363.58,73.028,342.59,98.663,342.59z"/>
			<path fill-rule="evenodd" clip-rule="evenodd" fill="#772D2F" d="M104.229,341.742h164.982L50,543.664V395.971
				C50,366.154,74.39,341.742,104.229,341.742z"/>
			<path fill-rule="evenodd" clip-rule="evenodd" fill="#772D2F" d="M103.436,1005.199H265.81L50.086,806.517v145.332
				C50.086,981.205,74.09,1005.199,103.436,1005.199z"/>
			<path fill-rule="evenodd" clip-rule="evenodd" fill="#772D2F" d="M965.552,340.916h-163.62l217.419,200.238V394.717
				C1019.351,365.114,995.133,340.916,965.552,340.916z"/>
			<path fill-rule="evenodd" clip-rule="evenodd" fill="#772D2F" d="M965.412,1008.116H800.998l218.439-201.192V954.09
				C1019.437,983.79,995.101,1008.116,965.412,1008.116z"/>
		</g>
		<polygon fill-rule="evenodd" clip-rule="evenodd" fill="#B4B4B4" points="51.255,630.187 231.767,494.937 325.51,620.03 
			93.203,794.086 51.255,738.109 		"/>
		<path fill-rule="evenodd" clip-rule="evenodd" fill="#E8E58F" d="M51.255,645.761L214.37,523.532
			c3.508-2.628,8.506-1.92,11.134,1.587l69.256,92.455c2.638,3.475,1.92,8.483-1.588,11.112L110.6,765.501
			c-3.507,2.617-8.505,1.899-11.134-1.587L51.255,699.56V645.761z"/>
		<path fill-rule="evenodd" clip-rule="evenodd" fill="#9A9B9B" d="M241.56,639.529c52.095,0,94.332,42.238,94.332,94.332
			c0,52.094-42.238,94.331-94.332,94.331c-52.094,0-94.331-42.237-94.331-94.331C147.229,681.767,189.466,639.529,241.56,639.529z"
			/>
		<path fill-rule="evenodd" clip-rule="evenodd" fill="#B4D9B8" d="M241.56,654.781c43.664,0,79.08,35.394,79.08,79.08
			c0,43.664-35.416,79.08-79.08,79.08s-79.08-35.416-79.08-79.08C162.48,690.175,197.896,654.781,241.56,654.781z"/>
		<polygon fill-rule="evenodd" clip-rule="evenodd" fill="#B4B4B4" points="926.36,684.47 750.824,790.535 744.089,580.034 		"/>
		<polygon fill-rule="evenodd" clip-rule="evenodd" fill="#E05D66" points="904.695,682.84 760.124,770.189 754.578,596.83 		"/>
		<path fill-rule="evenodd" clip-rule="evenodd" fill="#9A9B9B" d="M799.283,584.646c25.108-21.676,63.045-18.877,84.722,6.232
			c21.687,25.119,18.898,63.046-6.232,84.733c-25.119,21.654-63.046,18.866-84.722-6.243
			C771.386,644.26,774.174,606.312,799.283,584.646z"/>
		<path fill-rule="evenodd" clip-rule="evenodd" fill="#CDCBCA" d="M805.632,592.004c21.055-18.169,52.856-15.821,71.014,5.222
			c18.18,21.045,15.842,52.846-5.222,71.015c-21.045,18.158-52.846,15.809-71.015-5.213
			C782.25,641.964,784.578,610.163,805.632,592.004z"/>
	</g>
</g>
</svg>
